HIERARCHY
ROOT Hips
{
	OFFSET 0.000000 0.000000 0.000000
	CHANNELS 6 Xposition Yposition Zposition Xrotation Yrotation Zrotation
	JOINT LeftUpLeg_virtual
	{
		OFFSET 0.000000 0.000000 0.000000
		CHANNELS 3 Xrotation Yrotation Zrotation
		JOINT LeftUpLeg
		{
			OFFSET 11.394100 -6.187798 -0.413800
			CHANNELS 3 Xrotation Yrotation Zrotation
			JOINT LeftLeg
			{
				OFFSET 0.430247 -32.302673 3.732800
				CHANNELS 3 Xrotation Yrotation Zrotation
				JOINT LeftFoot
				{
					OFFSET -0.430247 -48.264931 -6.423300
					CHANNELS 3 Xrotation Yrotation Zrotation
					JOINT LeftToeBase
					{
						OFFSET 4.230900 -16.068199 23.438400
						CHANNELS 3 Xrotation Yrotation Zrotation
						JOINT LeftToe_End
						{
							OFFSET 4.510700 0.695400 19.974600
							CHANNELS 3 Xrotation Yrotation Zrotation
							End Site
							{
								OFFSET 0 0 0
							}
						}
					}
				}
			}
		}
	}
	JOINT RightUpLeg_virtual
	{
		OFFSET 0.000000 0.000000 0.000000
		CHANNELS 3 Xrotation Yrotation Zrotation
		JOINT RightUpLeg
		{
			OFFSET -11.333700 -6.187798 -0.413800
			CHANNELS 3 Xrotation Yrotation Zrotation
			JOINT RightLeg
			{
				OFFSET -0.430392 -32.302628 3.733000
				CHANNELS 3 Xrotation Yrotation Zrotation
				JOINT RightFoot
				{
					OFFSET 0.430392 -48.264973 -6.423500
					CHANNELS 3 Xrotation Yrotation Zrotation
					JOINT RightToeBase
					{
						OFFSET -4.230900 -16.068199 23.438400
						CHANNELS 3 Xrotation Yrotation Zrotation
						JOINT RightToe_End
						{
							OFFSET -4.510700 0.695400 19.974600
							CHANNELS 3 Xrotation Yrotation Zrotation
							End Site
							{
								OFFSET 0 0 0
							}
						}
					}
				}
			}
		}
	}
	JOINT Spine_virtual
	{
		OFFSET 0.000000 0.000000 0.000000
		CHANNELS 3 Xrotation Yrotation Zrotation
		JOINT Spine
		{
			OFFSET -0.002400 12.777504 0.315300
			CHANNELS 3 Xrotation Yrotation Zrotation
			JOINT Spine1
			{
				OFFSET -0.002067 5.816869 0.032633
				CHANNELS 3 Xrotation Yrotation Zrotation
				JOINT Spine1_split
				{
					OFFSET -0.002067 5.816869 0.032633
					CHANNELS 3 Xrotation Yrotation Zrotation
					JOINT Spine2
					{
						OFFSET -0.002067 5.816869 0.032633
						CHANNELS 3 Xrotation Yrotation Zrotation
						JOINT Neck_virtual
						{
							OFFSET 0.000000 0.000000 0.000000
							CHANNELS 3 Xrotation Yrotation Zrotation
							JOINT Neck
							{
								OFFSET -0.003700 21.199493 -0.826900
								CHANNELS 3 Xrotation Yrotation Zrotation
								JOINT Head
								{
									OFFSET 0.000000 20.442200 4.834800
									CHANNELS 3 Xrotation Yrotation Zrotation
									JOINT HeadTop_End
									{
										OFFSET 0.000000 34.668396 4.968400
										CHANNELS 3 Xrotation Yrotation Zrotation
										End Site
										{
											OFFSET 0 0 0
										}
									}
								}
							}
						}
						JOINT LeftShoulder_virtual
						{
							OFFSET 0.000000 0.000000 0.000000
							CHANNELS 3 Xrotation Yrotation Zrotation
							JOINT LeftShoulder
							{
								OFFSET 3.288150 8.794197 -1.372250
								CHANNELS 3 Xrotation Yrotation Zrotation
								JOINT LeftShoulder_split
								{
									OFFSET 3.288150 8.794197 -1.372250
									CHANNELS 3 Xrotation Yrotation Zrotation
									JOINT LeftArm
									{
										OFFSET 11.953299 -2.279007 -0.146200
										CHANNELS 3 Xrotation Yrotation Zrotation
										JOINT LeftForeArm
										{
											OFFSET 18.448900 0.000000 0.000000
											CHANNELS 3 Xrotation Yrotation Zrotation
											JOINT LeftHand
											{
												OFFSET 29.527798 0.000000 0.000000
												CHANNELS 3 Xrotation Yrotation Zrotation
												End Site
												{
													OFFSET 0 0 0
												}
											}
										}
									}
								}
							}
						}
						JOINT RightShoulder_virtual
						{
							OFFSET 0.000000 0.000000 0.000000
							CHANNELS 3 Xrotation Yrotation Zrotation
							JOINT RightShoulder
							{
								OFFSET -3.249400 8.794197 -1.372250
								CHANNELS 3 Xrotation Yrotation Zrotation
								JOINT RightShoulder_split
								{
									OFFSET -3.249400 8.794197 -1.372250
									CHANNELS 3 Xrotation Yrotation Zrotation
									JOINT RightArm
									{
										OFFSET -11.953299 -2.279007 -0.146200
										CHANNELS 3 Xrotation Yrotation Zrotation
										JOINT RightForeArm
										{
											OFFSET -18.448900 0.000000 0.000000
											CHANNELS 3 Xrotation Yrotation Zrotation
											JOINT RightHand
											{
												OFFSET -29.527802 0.000000 0.000000
												CHANNELS 3 Xrotation Yrotation Zrotation
												End Site
												{
													OFFSET 0 0 0
												}
											}
										}
									}
								}
							}
						}
					}
				}
			}
		}
	}
}
MOTION
Frames: 4
Frame Time: 0.03333333
70.763092 78.421356 184.784210 0.000000 0.000000 0.000000 172.051905 22.007284 -154.857519 -91.150534 -16.694186 29.137068 92.293655 -1.180490 -27.923630 -3.960950 8.863695 2.759872 -70.388760 -19.642910 4.835929 0.000000 0.000000 0.000000 172.104498 40.634517 -161.028977 -92.344813 0.729477 -44.517575 79.411365 7.023577 -11.754416 -22.052051 -22.346081 43.979107 -22.585260 11.401282 -38.675113 0.000000 0.000000 0.000000 156.075615 46.349018 -141.786012 22.099337 14.738998 19.583136 1.417939 8.967195 7.090968 0.037309 6.273247 -0.818635 0.000000 0.000000 0.000000 8.807181 11.900163 3.513689 -0.526785 26.204432 25.655539 -149.874827 -54.273902 -146.817812 0.000000 0.000000 0.000000 26.028951 9.589608 6.157538 14.944408 -10.308026 27.178711 -31.422436 -5.506684 -4.221406 -10.529456 -62.301543 -9.488826 24.053713 11.849439 6.634016 0.000000 0.000000 0.000000 26.442469 10.663120 -4.250069 -7.531255 -2.340429 -10.809801 -23.799634 -26.906246 17.342446 -65.325596 15.451787 19.143439 27.969435 42.204917 4.654156 0.000000 0.000000 0.000000 
77.967346 72.348198 194.081711 0.000000 0.000000 0.000000 -156.615432 -0.506533 -168.198941 -100.774804 -14.455281 26.256601 84.514097 -2.527166 -22.941221 1.126472 8.131208 -0.382550 -61.642580 -21.146095 8.379212 0.000000 0.000000 0.000000 -161.059358 11.040760 -177.890433 -101.743966 4.741765 -34.855326 77.560138 5.154352 -10.653826 -20.402200 -17.543332 45.431591 -22.413476 9.788840 -42.475481 0.000000 0.000000 0.000000 -160.084362 30.038919 -176.297687 20.778853 14.797748 16.348377 0.107887 10.214300 8.081090 0.338443 7.222531 -0.938263 0.000000 0.000000 0.000000 7.954434 13.604083 3.498743 -3.877837 22.051578 26.259646 -158.254732 -48.018918 -163.336188 0.000000 0.000000 0.000000 27.222308 11.594933 8.117950 15.021044 -11.998588 26.929088 -32.015296 -2.304867 -6.398820 -8.283503 -57.073686 -4.666043 18.458906 1.012551 6.716548 0.000000 0.000000 0.000000 28.541515 11.770687 -5.059963 -6.567211 3.924167 -9.295107 -25.581780 -22.208427 25.688172 -57.146830 11.711932 12.881354 37.958585 59.090378 -4.625852 0.000000 0.000000 0.000000 
85.460579 66.502327 204.821426 0.000000 0.000000 0.000000 -141.583633 -10.025071 -173.882123 -112.185830 -13.564415 23.762966 80.202841 -7.665511 -15.887368 12.714220 4.449247 -4.276429 -53.942283 -19.856229 8.765747 0.000000 0.000000 0.000000 -148.305550 -4.569727 178.134803 -112.575485 7.929576 -25.355807 72.853284 3.133034 -8.905136 -14.119877 -9.042616 47.480494 -20.266312 6.934565 -44.632561 0.000000 0.000000 0.000000 -141.708995 11.905083 172.879355 20.514306 13.539207 14.111881 -1.133001 10.146940 8.285892 0.353280 6.692762 -1.016923 0.000000 0.000000 0.000000 6.400243 14.137071 3.754086 -6.666002 19.685973 27.512040 -157.861449 -46.427562 -174.662554 0.000000 0.000000 0.000000 28.608423 12.029341 9.079522 14.648681 -12.182175 24.358176 -34.612366 2.212984 -7.988930 -8.745993 -48.186459 -2.040253 15.778155 -15.052630 8.218697 0.000000 0.000000 0.000000 28.927825 11.611215 -5.944322 -4.314392 12.894383 -8.015532 -26.649031 -19.661644 34.644106 -50.232824 6.497214 6.776072 52.324857 74.048116 -17.933292 0.000000 0.000000 0.000000 
93.108955 60.332706 215.887589 0.000000 0.000000 0.000000 -134.205841 -11.444792 -179.623375 -122.130886 -13.269643 21.795310 81.060159 -15.486752 -7.505097 25.487401 -1.459408 -5.807865 -46.050870 -17.176790 6.632906 0.000000 0.000000 0.000000 -139.267352 -11.905277 175.618261 -122.813140 9.836218 -17.163808 67.605718 0.432142 -6.395031 -6.920589 0.935882 46.918960 -14.188062 2.623701 -45.886673 0.000000 0.000000 0.000000 -132.741366 -0.657085 170.122732 21.796937 10.987395 13.154044 -2.360643 8.837532 7.703526 0.188532 4.959900 -0.876191 0.000000 0.000000 0.000000 3.829401 13.459829 3.968087 -8.579428 19.349369 29.015050 -151.875007 -50.160096 176.949451 0.000000 0.000000 0.000000 30.083271 10.904190 8.852635 14.030081 -10.893324 19.272895 -39.336545 7.200499 -7.963057 -8.529445 -38.790048 -0.376763 18.953222 -33.651618 12.994357 0.000000 0.000000 0.000000 27.580499 10.276427 -6.822382 -1.296616 22.717812 -7.192056 -22.066393 -21.526410 41.639388 -46.139475 1.454973 1.944892 107.977525 84.935233 -72.532183 0.000000 0.000000 0.000000 
